<svg width="153" height="57" viewBox="0 0 153 57" fill="none" xmlns="http://www.w3.org/2000/svg">
<g id="App Store Blue">
<rect id="Body" x="0.5" y="0.5" width="151.082" height="55.6197" rx="8.74447" fill="#FDFDFD" stroke="black"/>
<g id="Logo">
<g id="Apple logo">
<path d="M35.4011 29.1384C35.4307 26.8308 36.6652 24.6472 38.6236 23.4385C37.3882 21.6672 35.3188 20.5441 33.1659 20.4764C30.8696 20.2345 28.6434 21.8559 27.4733 21.8559C26.2805 21.8559 24.4789 20.5005 22.5388 20.5405C20.01 20.6226 17.6526 22.0659 16.4223 24.2853C13.7776 28.882 15.7503 35.6376 18.2837 39.3533C19.5512 41.1727 21.0325 43.2051 22.9708 43.133C24.8675 43.054 25.5759 41.9188 27.8655 41.9188C30.1338 41.9188 30.7984 43.133 32.776 43.0872C34.8113 43.054 36.0937 41.2596 37.3167 39.423C38.2274 38.1266 38.9282 36.6937 39.3931 35.1776C37.0012 34.162 35.4039 31.7456 35.4011 29.1384Z" fill="#2B2B2B"/>
<path d="M31.6657 18.0329C32.7754 16.6955 33.3221 14.9765 33.1897 13.241C31.4943 13.4197 29.9282 14.2332 28.8035 15.5193C27.7037 16.7758 27.1313 18.4646 27.2395 20.1338C28.9356 20.1513 30.6029 19.3599 31.6657 18.0329Z" fill="#2B2B2B"/>
</g>
</g>
<g id="Texto">
<g id="App Store">
<path d="M103.053 26.755V29.5514H101.307V31.3853H103.053V37.6163C103.053 39.744 104.012 40.5951 106.424 40.5951C106.848 40.5951 107.251 40.5444 107.604 40.4836V38.67C107.302 38.7004 107.11 38.7207 106.777 38.7207C105.697 38.7207 105.223 38.2141 105.223 37.0591V31.3853H107.604V29.5514H105.223V26.755H103.053Z" fill="#2B2B2B"/>
<path d="M113.749 40.7471C116.959 40.7471 118.927 38.589 118.927 35.0125C118.927 31.4562 116.948 29.288 113.749 29.288C110.54 29.288 108.562 31.4562 108.562 35.0125C108.562 38.589 110.53 40.7471 113.749 40.7471ZM113.749 38.8119C111.862 38.8119 110.802 37.4238 110.802 35.0125C110.802 32.6213 111.862 31.2231 113.749 31.2231C115.626 31.2231 116.696 32.6213 116.696 35.0125C116.696 37.4137 115.626 38.8119 113.749 38.8119Z" fill="#2B2B2B"/>
<path d="M120.61 40.5343H122.78V34.0195C122.78 32.4694 123.941 31.4258 125.586 31.4258C125.969 31.4258 126.615 31.4967 126.797 31.5575V29.4095C126.565 29.3488 126.151 29.3184 125.828 29.3184C124.395 29.3184 123.174 30.1086 122.861 31.1927H122.7V29.5007H120.61V40.5343Z" fill="#2B2B2B"/>
<path d="M132.185 31.1421C133.79 31.1421 134.839 32.2667 134.89 33.9993H129.339C129.46 32.2769 130.58 31.1421 132.185 31.1421ZM134.88 37.5555C134.476 38.4167 133.578 38.8929 132.266 38.8929C130.53 38.8929 129.409 37.667 129.339 35.7318V35.6102H137.1V34.8503C137.1 31.3853 135.253 29.288 132.195 29.288C129.097 29.288 127.129 31.5271 127.129 35.053C127.129 38.5789 129.056 40.7471 132.205 40.7471C134.718 40.7471 136.474 39.5312 136.969 37.5555H134.88Z" fill="#2B2B2B"/>
<path d="M88.8231 36.4598C88.9904 39.1691 91.2394 40.9018 94.5868 40.9018C98.1643 40.9018 100.403 39.0851 100.403 36.1867C100.403 33.9079 99.1267 32.6478 96.0304 31.9232L94.3671 31.5136C92.4006 31.0516 91.6056 30.432 91.6056 29.3504C91.6056 27.9852 92.8399 27.0926 94.6914 27.0926C96.4488 27.0926 97.6622 27.9642 97.8819 29.3609H100.162C100.026 26.809 97.7877 25.0133 94.7228 25.0133C91.4277 25.0133 89.231 26.809 89.231 29.5079C89.231 31.7342 90.4758 33.0573 93.206 33.6979L95.1517 34.1705C97.1496 34.643 98.0283 35.3361 98.0283 36.4913C98.0283 37.8355 96.6475 38.8121 94.7646 38.8121C92.7458 38.8121 91.344 37.8985 91.1453 36.4598H88.8231Z" fill="#2B2B2B"/>
<path d="M66.3454 29.3184C64.8517 29.3184 63.5599 30.0681 62.8937 31.3245H62.7323V29.5007H60.6431V44.202H62.813V38.8625H62.9846C63.5599 40.0277 64.8012 40.7167 66.3656 40.7167C69.141 40.7167 70.9072 38.5181 70.9072 35.0125C70.9072 31.5068 69.141 29.3184 66.3454 29.3184ZM65.7297 38.7612C63.9131 38.7612 62.7726 37.3225 62.7726 35.0226C62.7726 32.7125 63.9131 31.2738 65.7398 31.2738C67.5766 31.2738 68.6767 32.6821 68.6767 35.0125C68.6767 37.3529 67.5766 38.7612 65.7297 38.7612Z" fill="#2B2B2B"/>
<path d="M78.4999 29.3184C77.0062 29.3184 75.7144 30.0681 75.0483 31.3245H74.8868V29.5007H72.7977V44.202H74.9675V38.8625H75.1391C75.7144 40.0277 76.9558 40.7167 78.5201 40.7167C81.2955 40.7167 83.0617 38.5181 83.0617 35.0125C83.0617 31.5068 81.2955 29.3184 78.4999 29.3184ZM77.8843 38.7612C76.0676 38.7612 74.9272 37.3225 74.9272 35.0226C74.9272 32.7125 76.0676 31.2738 77.8944 31.2738C79.7312 31.2738 80.8313 32.6821 80.8313 35.0125C80.8313 37.3529 79.7312 38.7612 77.8843 38.7612Z" fill="#2B2B2B"/>
<path d="M56.75 40.5343H59.2396L53.7897 25.3809H51.2687L45.8188 40.5343H48.2247L49.6159 36.5123H55.3692L56.75 40.5343ZM52.4089 28.1322H52.5867L54.773 34.538H50.2122L52.4089 28.1322Z" fill="#2B2B2B"/>
<path d="M103.053 26.755V29.5514H101.307V31.3853H103.053V37.6163C103.053 39.744 104.012 40.5951 106.424 40.5951C106.848 40.5951 107.251 40.5444 107.604 40.4836V38.67C107.302 38.7004 107.11 38.7207 106.777 38.7207C105.697 38.7207 105.223 38.2141 105.223 37.0591V31.3853H107.604V29.5514H105.223V26.755H103.053Z" stroke="#4A3AFF"/>
<path d="M113.749 40.7471C116.959 40.7471 118.927 38.589 118.927 35.0125C118.927 31.4562 116.948 29.288 113.749 29.288C110.54 29.288 108.562 31.4562 108.562 35.0125C108.562 38.589 110.53 40.7471 113.749 40.7471ZM113.749 38.8119C111.862 38.8119 110.802 37.4238 110.802 35.0125C110.802 32.6213 111.862 31.2231 113.749 31.2231C115.626 31.2231 116.696 32.6213 116.696 35.0125C116.696 37.4137 115.626 38.8119 113.749 38.8119Z" stroke="#4A3AFF"/>
<path d="M120.61 40.5343H122.78V34.0195C122.78 32.4694 123.941 31.4258 125.586 31.4258C125.969 31.4258 126.615 31.4967 126.797 31.5575V29.4095C126.565 29.3488 126.151 29.3184 125.828 29.3184C124.395 29.3184 123.174 30.1086 122.861 31.1927H122.7V29.5007H120.61V40.5343Z" stroke="#4A3AFF"/>
<path d="M132.185 31.1421C133.79 31.1421 134.839 32.2667 134.89 33.9993H129.339C129.46 32.2769 130.58 31.1421 132.185 31.1421ZM134.88 37.5555C134.476 38.4167 133.578 38.8929 132.266 38.8929C130.53 38.8929 129.409 37.667 129.339 35.7318V35.6102H137.1V34.8503C137.1 31.3853 135.253 29.288 132.195 29.288C129.097 29.288 127.129 31.5271 127.129 35.053C127.129 38.5789 129.056 40.7471 132.205 40.7471C134.718 40.7471 136.474 39.5312 136.969 37.5555H134.88Z" stroke="#4A3AFF"/>
<path d="M88.8231 36.4598C88.9904 39.1691 91.2394 40.9018 94.5868 40.9018C98.1643 40.9018 100.403 39.0851 100.403 36.1867C100.403 33.9079 99.1267 32.6478 96.0304 31.9232L94.3671 31.5136C92.4006 31.0516 91.6056 30.432 91.6056 29.3504C91.6056 27.9852 92.8399 27.0926 94.6914 27.0926C96.4488 27.0926 97.6622 27.9642 97.8819 29.3609H100.162C100.026 26.809 97.7877 25.0133 94.7228 25.0133C91.4277 25.0133 89.231 26.809 89.231 29.5079C89.231 31.7342 90.4758 33.0573 93.206 33.6979L95.1517 34.1705C97.1496 34.643 98.0283 35.3361 98.0283 36.4913C98.0283 37.8355 96.6475 38.8121 94.7646 38.8121C92.7458 38.8121 91.344 37.8985 91.1453 36.4598H88.8231Z" stroke="#4A3AFF"/>
<path d="M66.3454 29.3184C64.8517 29.3184 63.5599 30.0681 62.8937 31.3245H62.7323V29.5007H60.6431V44.202H62.813V38.8625H62.9846C63.5599 40.0277 64.8012 40.7167 66.3656 40.7167C69.141 40.7167 70.9072 38.5181 70.9072 35.0125C70.9072 31.5068 69.141 29.3184 66.3454 29.3184ZM65.7297 38.7612C63.9131 38.7612 62.7726 37.3225 62.7726 35.0226C62.7726 32.7125 63.9131 31.2738 65.7398 31.2738C67.5766 31.2738 68.6767 32.6821 68.6767 35.0125C68.6767 37.3529 67.5766 38.7612 65.7297 38.7612Z" stroke="#4A3AFF"/>
<path d="M78.4999 29.3184C77.0062 29.3184 75.7144 30.0681 75.0483 31.3245H74.8868V29.5007H72.7977V44.202H74.9675V38.8625H75.1391C75.7144 40.0277 76.9558 40.7167 78.5201 40.7167C81.2955 40.7167 83.0617 38.5181 83.0617 35.0125C83.0617 31.5068 81.2955 29.3184 78.4999 29.3184ZM77.8843 38.7612C76.0676 38.7612 74.9272 37.3225 74.9272 35.0226C74.9272 32.7125 76.0676 31.2738 77.8944 31.2738C79.7312 31.2738 80.8313 32.6821 80.8313 35.0125C80.8313 37.3529 79.7312 38.7612 77.8843 38.7612Z" stroke="#4A3AFF"/>
<path d="M56.75 40.5343H59.2396L53.7897 25.3809H51.2687L45.8188 40.5343H48.2247L49.6159 36.5123H55.3692L56.75 40.5343ZM52.4089 28.1322H52.5867L54.773 34.538H50.2122L52.4089 28.1322Z" stroke="#4A3AFF"/>
</g>
<g id="Download on the">
<path d="M45.7585 14.6923V20.6821H47.9128C49.6907 20.6821 50.7203 19.5821 50.7203 17.6685C50.7203 15.784 49.6824 14.6923 47.9128 14.6923H45.7585ZM46.6847 15.5391H47.8094C49.0457 15.5391 49.7775 16.3278 49.7775 17.681C49.7775 19.0549 49.0581 19.8353 47.8094 19.8353H46.6847V15.5391Z" fill="#2B2B2B"/>
<path d="M53.8735 20.7692C55.1883 20.7692 55.9946 19.8851 55.9946 18.4198C55.9946 16.9628 55.1842 16.0746 53.8735 16.0746C52.5586 16.0746 51.7482 16.9628 51.7482 18.4198C51.7482 19.8851 52.5545 20.7692 53.8735 20.7692ZM53.8735 19.9764C53.1003 19.9764 52.6661 19.4077 52.6661 18.4198C52.6661 17.4402 53.1003 16.8674 53.8735 16.8674C54.6425 16.8674 55.0808 17.4402 55.0808 18.4198C55.0808 19.4036 54.6425 19.9764 53.8735 19.9764Z" fill="#2B2B2B"/>
<path d="M62.8608 16.1617H61.9718L61.1697 19.6111H61.0994L60.1732 16.1617H59.3214L58.3952 19.6111H58.3291L57.5228 16.1617H56.6214L57.8619 20.6821H58.7756L59.7018 17.353H59.7721L60.7025 20.6821H61.6245L62.8608 16.1617Z" fill="#2B2B2B"/>
<path d="M63.8846 20.6821H64.7736V18.0379C64.7736 17.3323 65.1912 16.8923 65.8486 16.8923C66.506 16.8923 66.8203 17.2534 66.8203 17.9798V20.6821H67.7092V17.7557C67.7092 16.6806 67.1552 16.0746 66.1504 16.0746C65.4723 16.0746 65.0258 16.3776 64.8066 16.8798H64.7405V16.1617H63.8846V20.6821Z" fill="#2B2B2B"/>
<path d="M69.1093 20.6821H69.9983V14.3976H69.1093V20.6821Z" fill="#2B2B2B"/>
<path d="M73.3416 20.7692C74.6565 20.7692 75.4628 19.8851 75.4628 18.4198C75.4628 16.9628 74.6524 16.0746 73.3416 16.0746C72.0268 16.0746 71.2164 16.9628 71.2164 18.4198C71.2164 19.8851 72.0226 20.7692 73.3416 20.7692ZM73.3416 19.9764C72.5684 19.9764 72.1343 19.4077 72.1343 18.4198C72.1343 17.4402 72.5684 16.8674 73.3416 16.8674C74.1107 16.8674 74.549 17.4402 74.549 18.4198C74.549 19.4036 74.1107 19.9764 73.3416 19.9764Z" fill="#2B2B2B"/>
<path d="M78.1115 20.0055C77.6277 20.0055 77.2763 19.7689 77.2763 19.3621C77.2763 18.9636 77.5575 18.7519 78.1777 18.7104L79.2775 18.6398V19.0176C79.2775 19.5779 78.7813 20.0055 78.1115 20.0055ZM77.8841 20.7568C78.4754 20.7568 78.9674 20.4994 79.2362 20.047H79.3065V20.6821H80.1624V17.5938C80.1624 16.6391 79.5256 16.0746 78.3968 16.0746C77.3755 16.0746 76.6478 16.5727 76.5568 17.3489H77.4169C77.5161 17.0293 77.8593 16.8466 78.3555 16.8466C78.9633 16.8466 79.2775 17.1164 79.2775 17.5938V17.984L78.0578 18.0545C76.9869 18.121 76.3832 18.59 76.3832 19.4036C76.3832 20.2296 77.0158 20.7568 77.8841 20.7568Z" fill="#2B2B2B"/>
<path d="M83.1791 20.7568C83.7993 20.7568 84.3244 20.4621 84.5932 19.9681H84.6635V20.6821H85.5152V14.3976H84.6263V16.8798H84.5601C84.3162 16.3817 83.7952 16.087 83.1791 16.087C82.042 16.087 81.3102 16.9919 81.3102 18.4198C81.3102 19.8519 82.0338 20.7568 83.1791 20.7568ZM83.4313 16.8881C84.1756 16.8881 84.6428 17.4817 84.6428 18.424C84.6428 19.3704 84.1797 19.9557 83.4313 19.9557C82.6788 19.9557 82.2281 19.3787 82.2281 18.4198C82.2281 17.4693 82.6829 16.8881 83.4313 16.8881Z" fill="#2B2B2B"/>
<path d="M91.2799 20.7692C92.5948 20.7692 93.4011 19.8851 93.4011 18.4198C93.4011 16.9628 92.5907 16.0746 91.2799 16.0746C89.9651 16.0746 89.1547 16.9628 89.1547 18.4198C89.1547 19.8851 89.961 20.7692 91.2799 20.7692ZM91.2799 19.9764C90.5067 19.9764 90.0726 19.4077 90.0726 18.4198C90.0726 17.4402 90.5067 16.8674 91.2799 16.8674C92.049 16.8674 92.4873 17.4402 92.4873 18.4198C92.4873 19.4036 92.049 19.9764 91.2799 19.9764Z" fill="#2B2B2B"/>
<path d="M94.5779 20.6821H95.4668V18.0379C95.4668 17.3323 95.8844 16.8923 96.5419 16.8923C97.1993 16.8923 97.5135 17.2534 97.5135 17.9798V20.6821H98.4025V17.7557C98.4025 16.6806 97.8485 16.0746 96.8437 16.0746C96.1656 16.0746 95.719 16.3776 95.4999 16.8798H95.4337V16.1617H94.5779V20.6821Z" fill="#2B2B2B"/>
<path d="M102.497 15.0368V16.1825H101.781V16.9338H102.497V19.4866C102.497 20.3583 102.89 20.707 103.878 20.707C104.051 20.707 104.217 20.6862 104.362 20.6613V19.9183C104.238 19.9308 104.159 19.9391 104.023 19.9391C103.58 19.9391 103.386 19.7315 103.386 19.2583V16.9338H104.362V16.1825H103.386V15.0368H102.497Z" fill="#2B2B2B"/>
<path d="M105.555 20.6821H106.444V18.0421C106.444 17.3572 106.849 16.8964 107.577 16.8964C108.205 16.8964 108.54 17.2617 108.54 17.984V20.6821H109.429V17.764C109.429 16.6889 108.838 16.0787 107.879 16.0787C107.2 16.0787 106.725 16.3817 106.506 16.8881H106.436V14.3976H105.555V20.6821Z" fill="#2B2B2B"/>
<path d="M112.636 16.8342C113.293 16.8342 113.724 17.2949 113.744 18.0047H111.47C111.52 17.2991 111.979 16.8342 112.636 16.8342ZM113.74 19.4617C113.575 19.8145 113.207 20.0096 112.669 20.0096C111.958 20.0096 111.499 19.5074 111.47 18.7145V18.6647H114.65V18.3534C114.65 16.9338 113.893 16.0746 112.64 16.0746C111.371 16.0746 110.565 16.9919 110.565 18.4364C110.565 19.8809 111.354 20.7692 112.644 20.7692C113.674 20.7692 114.393 20.2711 114.596 19.4617H113.74Z" fill="#2B2B2B"/>
<path d="M45.7585 14.6923V20.6821H47.9128C49.6907 20.6821 50.7203 19.5821 50.7203 17.6685C50.7203 15.784 49.6824 14.6923 47.9128 14.6923H45.7585ZM46.6847 15.5391H47.8094C49.0457 15.5391 49.7775 16.3278 49.7775 17.681C49.7775 19.0549 49.0581 19.8353 47.8094 19.8353H46.6847V15.5391Z" stroke="#4A3AFF"/>
<path d="M53.8735 20.7692C55.1883 20.7692 55.9946 19.8851 55.9946 18.4198C55.9946 16.9628 55.1842 16.0746 53.8735 16.0746C52.5586 16.0746 51.7482 16.9628 51.7482 18.4198C51.7482 19.8851 52.5545 20.7692 53.8735 20.7692ZM53.8735 19.9764C53.1003 19.9764 52.6661 19.4077 52.6661 18.4198C52.6661 17.4402 53.1003 16.8674 53.8735 16.8674C54.6425 16.8674 55.0808 17.4402 55.0808 18.4198C55.0808 19.4036 54.6425 19.9764 53.8735 19.9764Z" stroke="#4A3AFF"/>
<path d="M62.8608 16.1617H61.9718L61.1697 19.6111H61.0994L60.1732 16.1617H59.3214L58.3952 19.6111H58.3291L57.5228 16.1617H56.6214L57.8619 20.6821H58.7756L59.7018 17.353H59.7721L60.7025 20.6821H61.6245L62.8608 16.1617Z" stroke="#4A3AFF"/>
<path d="M63.8846 20.6821H64.7736V18.0379C64.7736 17.3323 65.1912 16.8923 65.8486 16.8923C66.506 16.8923 66.8203 17.2534 66.8203 17.9798V20.6821H67.7092V17.7557C67.7092 16.6806 67.1552 16.0746 66.1504 16.0746C65.4723 16.0746 65.0258 16.3776 64.8066 16.8798H64.7405V16.1617H63.8846V20.6821Z" stroke="#4A3AFF"/>
<path d="M69.1093 20.6821H69.9983V14.3976H69.1093V20.6821Z" stroke="#4A3AFF"/>
<path d="M73.3416 20.7692C74.6565 20.7692 75.4628 19.8851 75.4628 18.4198C75.4628 16.9628 74.6524 16.0746 73.3416 16.0746C72.0268 16.0746 71.2164 16.9628 71.2164 18.4198C71.2164 19.8851 72.0226 20.7692 73.3416 20.7692ZM73.3416 19.9764C72.5684 19.9764 72.1343 19.4077 72.1343 18.4198C72.1343 17.4402 72.5684 16.8674 73.3416 16.8674C74.1107 16.8674 74.549 17.4402 74.549 18.4198C74.549 19.4036 74.1107 19.9764 73.3416 19.9764Z" stroke="#4A3AFF"/>
<path d="M78.1115 20.0055C77.6277 20.0055 77.2763 19.7689 77.2763 19.3621C77.2763 18.9636 77.5575 18.7519 78.1777 18.7104L79.2775 18.6398V19.0176C79.2775 19.5779 78.7813 20.0055 78.1115 20.0055ZM77.8841 20.7568C78.4754 20.7568 78.9674 20.4994 79.2362 20.047H79.3065V20.6821H80.1624V17.5938C80.1624 16.6391 79.5256 16.0746 78.3968 16.0746C77.3755 16.0746 76.6478 16.5727 76.5568 17.3489H77.4169C77.5161 17.0293 77.8593 16.8466 78.3555 16.8466C78.9633 16.8466 79.2775 17.1164 79.2775 17.5938V17.984L78.0578 18.0545C76.9869 18.121 76.3832 18.59 76.3832 19.4036C76.3832 20.2296 77.0158 20.7568 77.8841 20.7568Z" stroke="#4A3AFF"/>
<path d="M83.1791 20.7568C83.7993 20.7568 84.3244 20.4621 84.5932 19.9681H84.6635V20.6821H85.5152V14.3976H84.6263V16.8798H84.5601C84.3162 16.3817 83.7952 16.087 83.1791 16.087C82.042 16.087 81.3102 16.9919 81.3102 18.4198C81.3102 19.8519 82.0338 20.7568 83.1791 20.7568ZM83.4313 16.8881C84.1756 16.8881 84.6428 17.4817 84.6428 18.424C84.6428 19.3704 84.1797 19.9557 83.4313 19.9557C82.6788 19.9557 82.2281 19.3787 82.2281 18.4198C82.2281 17.4693 82.6829 16.8881 83.4313 16.8881Z" stroke="#4A3AFF"/>
<path d="M91.2799 20.7692C92.5948 20.7692 93.4011 19.8851 93.4011 18.4198C93.4011 16.9628 92.5907 16.0746 91.2799 16.0746C89.9651 16.0746 89.1547 16.9628 89.1547 18.4198C89.1547 19.8851 89.961 20.7692 91.2799 20.7692ZM91.2799 19.9764C90.5067 19.9764 90.0726 19.4077 90.0726 18.4198C90.0726 17.4402 90.5067 16.8674 91.2799 16.8674C92.049 16.8674 92.4873 17.4402 92.4873 18.4198C92.4873 19.4036 92.049 19.9764 91.2799 19.9764Z" stroke="#4A3AFF"/>
<path d="M94.5779 20.6821H95.4668V18.0379C95.4668 17.3323 95.8844 16.8923 96.5419 16.8923C97.1993 16.8923 97.5135 17.2534 97.5135 17.9798V20.6821H98.4025V17.7557C98.4025 16.6806 97.8485 16.0746 96.8437 16.0746C96.1656 16.0746 95.719 16.3776 95.4999 16.8798H95.4337V16.1617H94.5779V20.6821Z" stroke="#4A3AFF"/>
<path d="M102.497 15.0368V16.1825H101.781V16.9338H102.497V19.4866C102.497 20.3583 102.89 20.707 103.878 20.707C104.051 20.707 104.217 20.6862 104.362 20.6613V19.9183C104.238 19.9308 104.159 19.9391 104.023 19.9391C103.58 19.9391 103.386 19.7315 103.386 19.2583V16.9338H104.362V16.1825H103.386V15.0368H102.497Z" stroke="#4A3AFF"/>
<path d="M105.555 20.6821H106.444V18.0421C106.444 17.3572 106.849 16.8964 107.577 16.8964C108.205 16.8964 108.54 17.2617 108.54 17.984V20.6821H109.429V17.764C109.429 16.6889 108.838 16.0787 107.879 16.0787C107.2 16.0787 106.725 16.3817 106.506 16.8881H106.436V14.3976H105.555V20.6821Z" stroke="#4A3AFF"/>
<path d="M112.636 16.8342C113.293 16.8342 113.724 17.2949 113.744 18.0047H111.47C111.52 17.2991 111.979 16.8342 112.636 16.8342ZM113.74 19.4617C113.575 19.8145 113.207 20.0096 112.669 20.0096C111.958 20.0096 111.499 19.5074 111.47 18.7145V18.6647H114.65V18.3534C114.65 16.9338 113.893 16.0746 112.64 16.0746C111.371 16.0746 110.565 16.9919 110.565 18.4364C110.565 19.8809 111.354 20.7692 112.644 20.7692C113.674 20.7692 114.393 20.2711 114.596 19.4617H113.74Z" stroke="#4A3AFF"/>
</g>
</g>
</g>
</svg>
