<svg width="153" height="58" viewBox="0 0 153 58" fill="none" xmlns="http://www.w3.org/2000/svg">
<g id="Google Play Blue">
<rect id="Body" x="0.582001" y="0.5" width="151" height="56.9072" rx="12.2053" fill="#FDFDFD" stroke="black"/>
<g id="Logo" filter="url(#filter0_ii_10_400)">
<path id="Vector" d="M15.0484 17.361C15.0484 16.7124 15.223 16.2271 15.5006 15.9161L29.0802 29.5498C29.1266 29.5964 29.1527 29.6596 29.1527 29.7254C29.1527 29.7913 29.1266 29.8544 29.0802 29.9011L15.5001 43.5341C15.2227 43.2232 15.0484 42.7391 15.0484 42.0899V17.361Z" fill="#2B2B2B" stroke="white" stroke-width="0.292632"/>
<path id="Vector_2" d="M33.9299 25.1303L33.9297 25.1302C33.9259 25.1281 33.9212 25.1287 33.9182 25.1318L29.5177 29.5495L29.4143 29.4465L29.5177 29.5495C29.4712 29.5961 29.4451 29.6593 29.4451 29.7252C29.4451 29.791 29.4712 29.8542 29.5176 29.9009L33.9168 34.3193C33.9206 34.3231 33.9263 34.324 33.931 34.3216C33.9311 34.3215 33.9312 34.3214 33.9313 34.3214L34.0023 34.4493L33.9299 25.1303ZM33.9299 25.1303L39.3796 28.2388C39.3796 28.2388 39.3796 28.2388 39.3797 28.2388C40.1309 28.6674 40.4728 29.2118 40.4728 29.7258C40.4728 30.2399 40.1309 30.7846 39.3797 31.2138L33.9299 25.1303Z" fill="#2B2B2B" stroke="white" stroke-width="0.292632"/>
<g id="Vector_3">
<g filter="url(#filter1_i_10_400)">
<path d="M34.0026 34.4485L29.2979 29.7255L15.4178 43.6609C15.9301 44.2065 16.7777 44.2736 17.7322 43.7302L34.0026 34.4485Z" fill="#2B2B2B"/>
</g>
<path d="M29.2979 29.9328L15.6268 43.6583C16.0852 44.0486 16.8061 44.0891 17.6597 43.6031L29.2979 29.9328ZM29.2979 29.9328L33.7639 34.4162L17.6598 43.6031L29.2979 29.9328Z" stroke="white" stroke-width="0.292632"/>
</g>
<path id="Vector_4" d="M17.6597 15.8486L17.6597 15.8486L33.7639 25.0344L29.299 29.5189L15.6268 15.7933C16.0853 15.4028 16.8062 15.3617 17.6597 15.8486Z" fill="#2B2B2B" stroke="white" stroke-width="0.292632"/>
</g>
<path id="Google Play" d="M75.5751 31.0789C73.1009 31.0789 71.0843 32.9599 71.0843 35.5506C71.0843 38.1255 73.1009 40.0222 75.5751 40.0222C78.0503 40.0222 80.0669 38.1255 80.0669 35.5506C80.0658 32.9599 78.0492 31.0789 75.5751 31.0789ZM75.5751 38.2621C74.2191 38.2621 73.0504 37.1445 73.0504 35.5516C73.0504 33.9419 74.2202 32.8411 75.5751 32.8411C76.931 32.8411 78.0997 33.9419 78.0997 35.5516C78.0997 37.1434 76.931 38.2621 75.5751 38.2621ZM65.7773 31.0789C63.3031 31.0789 61.2865 32.9599 61.2865 35.5506C61.2865 38.1255 63.3031 40.0222 65.7773 40.0222C68.2525 40.0222 70.2691 38.1255 70.2691 35.5506C70.2691 32.9599 68.2525 31.0789 65.7773 31.0789ZM65.7773 38.2621C64.4213 38.2621 63.2526 37.1445 63.2526 35.5516C63.2526 33.9419 64.4224 32.8411 65.7773 32.8411C67.1332 32.8411 68.3019 33.9419 68.3019 35.5516C68.303 37.1434 67.1332 38.2621 65.7773 38.2621ZM54.1238 32.452V34.3488H58.6661C58.5304 35.416 58.1749 36.1951 57.6321 36.7365C56.9714 37.3968 55.9374 38.1255 54.1238 38.1255C51.3278 38.1255 49.1418 35.8723 49.1418 33.0776C49.1418 30.283 51.3278 28.0298 54.1238 28.0298C55.6323 28.0298 56.7337 28.6228 57.5469 29.3851L58.886 28.0466C57.7499 26.9626 56.2424 26.1331 54.1238 26.1331C50.2937 26.1331 47.0737 29.2494 47.0737 33.0776C47.0737 36.9058 50.2937 40.0222 54.1238 40.0222C56.1909 40.0222 57.7509 39.344 58.9701 38.0739C60.2241 36.8207 60.6143 35.0585 60.6143 33.6359C60.6143 33.1964 60.5807 32.7895 60.5123 32.451L54.1238 32.452ZM101.785 33.9251C101.413 32.9262 100.277 31.0789 97.9552 31.0789C95.6504 31.0789 93.7348 32.8915 93.7348 35.5506C93.7348 38.0571 95.6335 40.0222 98.175 40.0222C100.225 40.0222 101.412 38.7689 101.904 38.0403L100.379 37.0236C99.8708 37.769 99.1754 38.26 98.175 38.26C97.1757 38.26 96.4635 37.8027 96.0059 36.9048L101.988 34.4318L101.785 33.9251ZM95.684 35.416C95.6335 33.6874 97.0231 32.8074 98.0235 32.8074C98.803 32.8074 99.4637 33.1975 99.6846 33.7558L95.684 35.416ZM90.8209 39.752H92.7859V26.6083H90.8209V39.752ZM87.5998 32.0788H87.5325C87.0917 31.5531 86.2439 31.0789 85.1772 31.0789C82.9397 31.0789 80.8895 33.044 80.8895 35.5684C80.8895 38.075 82.9397 40.0233 85.1772 40.0233C86.2449 40.0233 87.0917 39.5491 87.5325 39.0076H87.5998V39.6511C87.5998 41.3617 86.6846 42.2764 85.2109 42.2764C84.0074 42.2764 83.2616 41.4132 82.9566 40.6846L81.245 41.3964C81.7363 42.5813 83.0407 44.0386 85.2109 44.0386C87.5157 44.0386 89.4649 42.6833 89.4649 39.3798V31.3512H87.6009L87.5998 32.0788ZM85.3466 38.2621C83.9906 38.2621 82.8556 37.1266 82.8556 35.5684C82.8556 33.9924 83.9906 32.8411 85.3466 32.8411C86.6846 32.8411 87.7355 33.9924 87.7355 35.5684C87.7355 37.1266 86.6846 38.2621 85.3466 38.2621ZM110.994 26.6083H106.291V39.752H108.253V34.7725H110.993C113.168 34.7725 115.308 33.1985 115.308 30.6909C115.308 28.1833 113.169 26.6083 110.994 26.6083ZM111.045 32.943H108.253V28.4378H111.045C112.512 28.4378 113.345 29.6521 113.345 30.6909C113.345 31.7087 112.512 32.943 111.045 32.943ZM123.176 31.0558C121.754 31.0558 120.283 31.6814 119.674 33.0682L121.416 33.7947C121.788 33.0682 122.482 32.8305 123.209 32.8305C124.224 32.8305 125.256 33.4393 125.273 34.5212V34.6568C124.918 34.4539 124.156 34.1501 123.226 34.1501C121.348 34.1501 119.436 35.1815 119.436 37.1087C119.436 38.8678 120.976 40.0001 122.701 40.0001C124.02 40.0001 124.748 39.4082 125.205 38.7142H125.272V39.7289H127.168V34.6894C127.169 32.3574 125.425 31.0558 123.176 31.0558ZM122.938 38.259C122.296 38.259 121.399 37.9373 121.399 37.1424C121.399 36.1278 122.516 35.7388 123.481 35.7388C124.342 35.7388 124.749 35.9249 125.273 36.1782C125.121 37.3968 124.072 38.259 122.938 38.259ZM134.07 31.3428L131.82 37.0415H131.753L129.418 31.3428H127.303L130.805 39.3072L128.809 43.7379H130.856L136.253 31.3428H134.07ZM116.392 39.752H118.353V26.6083H116.392V39.752Z" fill="#2B2B2B"/>
<g id="Get it on">
<path d="M53.8788 18.8332C53.8788 19.6983 53.6181 20.3869 53.0958 20.901C52.503 21.5122 51.7295 21.8178 50.7794 21.8178C49.8692 21.8178 49.0946 21.5081 48.4588 20.8887C47.8219 20.2682 47.5034 19.5001 47.5034 18.5834C47.5034 17.6656 47.8219 16.8975 48.4588 16.2781C49.0946 15.6577 49.8692 15.348 50.7794 15.348C51.2313 15.348 51.6633 15.4347 52.0732 15.6071C52.4841 15.7805 52.8131 16.0107 53.059 16.2988L52.5051 16.8439C52.0879 16.3535 51.513 16.1088 50.7783 16.1088C50.1141 16.1088 49.5403 16.338 49.0557 16.7964C48.5712 17.2547 48.3295 17.8504 48.3295 18.5824C48.3295 19.3143 48.5712 19.91 49.0557 20.3683C49.5403 20.8267 50.1141 21.0559 50.7783 21.0559C51.4825 21.0559 52.07 20.8257 52.5398 20.3642C52.8446 20.0638 53.0212 19.6457 53.0685 19.1099H50.7783V18.3656H53.8336C53.8651 18.5276 53.8788 18.6835 53.8788 18.8332Z" fill="#2B2B2B"/>
<path d="M58.724 16.2462H55.8527V18.2097H58.4423V18.9541H55.8527V20.9176H58.724V21.6795H55.0424V15.4853H58.724V16.2462Z" fill="#2B2B2B"/>
<path d="M62.1407 21.6795H61.3304V16.2462H59.5689V15.4853H63.9022V16.2462H62.1407V21.6795Z" fill="#2B2B2B"/>
<path d="M67.0373 21.6795V15.4853H67.8476V21.6795H67.0373Z" fill="#2B2B2B"/>
<path d="M71.4411 21.6795H70.6308V16.2462H68.8693V15.4853H73.2026V16.2462H71.4411V21.6795Z" fill="#2B2B2B"/>
<path d="M81.4055 20.8794C80.7854 21.505 80.015 21.8178 79.0932 21.8178C78.1715 21.8178 77.4011 21.505 76.7821 20.8794C76.162 20.2538 75.853 19.4878 75.853 18.5824C75.853 17.677 76.162 16.911 76.7821 16.2854C77.4011 15.6598 78.1715 15.3459 79.0932 15.3459C80.0097 15.3459 80.7791 15.6608 81.4013 16.2895C82.0234 16.9182 82.3345 17.6822 82.3345 18.5824C82.3345 19.4878 82.0245 20.2538 81.4055 20.8794ZM77.3801 20.3601C77.8468 20.8247 78.4175 21.0559 79.0932 21.0559C79.769 21.0559 80.3408 20.8237 80.8064 20.3601C81.273 19.8956 81.5074 19.303 81.5074 18.5824C81.5074 17.8618 81.273 17.2692 80.8064 16.8047C80.3408 16.3401 79.769 16.1089 79.0932 16.1089C78.4175 16.1089 77.8468 16.3411 77.3801 16.8047C76.9145 17.2692 76.6802 17.8618 76.6802 18.5824C76.6802 19.303 76.9145 19.8956 77.3801 20.3601Z" fill="#2B2B2B"/>
<path d="M83.4717 21.6795V15.4853H84.4576L87.5223 20.3034H87.557L87.5223 19.11V15.4853H88.3326V21.6795H87.4866L84.28 16.6271H84.2453L84.28 17.8205V21.6795H83.4717Z" fill="#2B2B2B"/>
<path d="M53.8788 18.8332C53.8788 19.6983 53.6181 20.3869 53.0958 20.901C52.503 21.5122 51.7295 21.8178 50.7794 21.8178C49.8692 21.8178 49.0946 21.5081 48.4588 20.8887C47.8219 20.2682 47.5034 19.5001 47.5034 18.5834C47.5034 17.6656 47.8219 16.8975 48.4588 16.2781C49.0946 15.6577 49.8692 15.348 50.7794 15.348C51.2313 15.348 51.6633 15.4347 52.0732 15.6071C52.4841 15.7805 52.8131 16.0107 53.059 16.2988L52.5051 16.8439C52.0879 16.3535 51.513 16.1088 50.7783 16.1088C50.1141 16.1088 49.5403 16.338 49.0557 16.7964C48.5712 17.2547 48.3295 17.8504 48.3295 18.5824C48.3295 19.3143 48.5712 19.91 49.0557 20.3683C49.5403 20.8267 50.1141 21.0559 50.7783 21.0559C51.4825 21.0559 52.07 20.8257 52.5398 20.3642C52.8446 20.0638 53.0212 19.6457 53.0685 19.1099H50.7783V18.3656H53.8336C53.8651 18.5276 53.8788 18.6835 53.8788 18.8332Z" stroke="white" stroke-width="0.0598465" stroke-miterlimit="10"/>
<path d="M58.724 16.2462H55.8527V18.2097H58.4423V18.9541H55.8527V20.9176H58.724V21.6795H55.0424V15.4853H58.724V16.2462Z" stroke="white" stroke-width="0.0598465" stroke-miterlimit="10"/>
<path d="M62.1407 21.6795H61.3304V16.2462H59.5689V15.4853H63.9022V16.2462H62.1407V21.6795Z" stroke="white" stroke-width="0.0598465" stroke-miterlimit="10"/>
<path d="M67.0373 21.6795V15.4853H67.8476V21.6795H67.0373Z" stroke="white" stroke-width="0.0598465" stroke-miterlimit="10"/>
<path d="M71.4411 21.6795H70.6308V16.2462H68.8693V15.4853H73.2026V16.2462H71.4411V21.6795Z" stroke="white" stroke-width="0.0598465" stroke-miterlimit="10"/>
<path d="M81.4055 20.8794C80.7854 21.505 80.015 21.8178 79.0932 21.8178C78.1715 21.8178 77.4011 21.505 76.7821 20.8794C76.162 20.2538 75.853 19.4878 75.853 18.5824C75.853 17.677 76.162 16.911 76.7821 16.2854C77.4011 15.6598 78.1715 15.3459 79.0932 15.3459C80.0097 15.3459 80.7791 15.6608 81.4013 16.2895C82.0234 16.9182 82.3345 17.6822 82.3345 18.5824C82.3345 19.4878 82.0245 20.2538 81.4055 20.8794ZM77.3801 20.3601C77.8468 20.8247 78.4175 21.0559 79.0932 21.0559C79.769 21.0559 80.3408 20.8237 80.8064 20.3601C81.273 19.8956 81.5074 19.303 81.5074 18.5824C81.5074 17.8618 81.273 17.2692 80.8064 16.8047C80.3408 16.3401 79.769 16.1089 79.0932 16.1089C78.4175 16.1089 77.8468 16.3411 77.3801 16.8047C76.9145 17.2692 76.6802 17.8618 76.6802 18.5824C76.6802 19.303 76.9145 19.8956 77.3801 20.3601Z" stroke="white" stroke-width="0.0598465" stroke-miterlimit="10"/>
<path d="M83.4717 21.6795V15.4853H84.4576L87.5223 20.3034H87.557L87.5223 19.11V15.4853H88.3326V21.6795H87.4866L84.28 16.6271H84.2453L84.28 17.8205V21.6795H83.4717Z" stroke="white" stroke-width="0.0598465" stroke-miterlimit="10"/>
</g>
</g>
<defs>
<filter id="filter0_ii_10_400" x="14.9021" y="15.3457" width="25.717" height="28.7599" filterUnits="userSpaceOnUse" color-interpolation-filters="sRGB">
<feFlood flood-opacity="0" result="BackgroundImageFix"/>
<feBlend mode="normal" in="SourceGraphic" in2="BackgroundImageFix" result="shape"/>
<feColorMatrix in="SourceAlpha" type="matrix" values="0 0 0 0 0 0 0 0 0 0 0 0 0 0 0 0 0 0 127 0" result="hardAlpha"/>
<feOffset dy="-0.232642"/>
<feComposite in2="hardAlpha" operator="arithmetic" k2="-1" k3="1"/>
<feColorMatrix type="matrix" values="0 0 0 0 0 0 0 0 0 0 0 0 0 0 0 0 0 0 0.12 0"/>
<feBlend mode="normal" in2="shape" result="effect1_innerShadow_10_400"/>
<feColorMatrix in="SourceAlpha" type="matrix" values="0 0 0 0 0 0 0 0 0 0 0 0 0 0 0 0 0 0 127 0" result="hardAlpha"/>
<feOffset dy="0.232642"/>
<feComposite in2="hardAlpha" operator="arithmetic" k2="-1" k3="1"/>
<feColorMatrix type="matrix" values="0 0 0 0 1 0 0 0 0 1 0 0 0 0 1 0 0 0 0.25 0"/>
<feBlend mode="normal" in2="effect1_innerShadow_10_400" result="effect2_innerShadow_10_400"/>
</filter>
<filter id="filter1_i_10_400" x="15.4178" y="29.7255" width="18.5848" height="14.3801" filterUnits="userSpaceOnUse" color-interpolation-filters="sRGB">
<feFlood flood-opacity="0" result="BackgroundImageFix"/>
<feBlend mode="normal" in="SourceGraphic" in2="BackgroundImageFix" result="shape"/>
<feColorMatrix in="SourceAlpha" type="matrix" values="0 0 0 0 0 0 0 0 0 0 0 0 0 0 0 0 0 0 127 0" result="hardAlpha"/>
<feOffset dy="-0.232642"/>
<feComposite in2="hardAlpha" operator="arithmetic" k2="-1" k3="1"/>
<feColorMatrix type="matrix" values="0 0 0 0 0 0 0 0 0 0 0 0 0 0 0 0 0 0 0.08 0"/>
<feBlend mode="normal" in2="shape" result="effect1_innerShadow_10_400"/>
</filter>
</defs>
</svg>
