<svg width="24" height="24" viewBox="0 0 24 24" fill="none" xmlns="http://www.w3.org/2000/svg">
<g id="Group 1">
<path id="Vector" d="M12.2623 0.512223C12.537 0.533773 13.4313 0.657681 13.7976 0.72233C14.1694 0.792365 15.0367 1.02941 15.2684 1.12099C15.4085 1.17487 15.6671 1.27723 15.8448 1.34726C16.4428 1.57353 17.9567 2.40857 18.0159 2.53786C18.0267 2.5648 18.0698 2.58096 18.1075 2.58096C18.1452 2.58096 18.1883 2.59712 18.1991 2.61867C18.2045 2.64561 18.3984 2.79646 18.6193 2.96346C19.282 3.4591 20.3109 4.50963 20.7204 5.11301C20.7904 5.21537 20.8658 5.31234 20.882 5.3285C20.8982 5.34467 21.0598 5.5871 21.2376 5.86724C21.5716 6.38981 22.0995 7.42957 22.245 7.86055C22.2935 7.99524 22.3797 8.23228 22.4389 8.38313C22.5036 8.53936 22.5413 8.66865 22.5251 8.66865C22.509 8.66865 22.5198 8.71714 22.5521 8.77101C22.579 8.83028 22.6437 9.05654 22.6921 9.27204C23.1016 11.1361 23.1231 12.4182 22.7945 14.2984C22.7352 14.6163 22.4551 15.5968 22.2989 16.0224C22.0834 16.5988 21.6255 17.5578 21.4207 17.8541C21.3345 17.9834 21.2591 18.1019 21.2591 18.1234C21.2591 18.1935 20.5103 19.2117 20.214 19.5403C19.3735 20.4777 18.2368 21.4313 17.4341 21.8676C17.2994 21.9431 17.1809 22.0185 17.1647 22.0346C17.1055 22.1101 16.2435 22.5141 15.6563 22.7458C14.3849 23.2468 12.9788 23.5 11.4811 23.5C10.6245 23.5 10.339 23.4785 9.51471 23.3438C8.13017 23.1229 6.40622 22.4333 5.15636 21.6037C4.70382 21.2966 4.65534 21.2643 4.25667 20.9464C3.58325 20.4023 2.24181 18.98 2.24181 18.8076C2.24181 18.7753 2.22026 18.743 2.19871 18.7322C2.08019 18.6837 1.53607 17.7894 1.16434 17.0298C0.905747 16.4965 0.884198 16.2433 1.08353 16.0062C1.42293 15.6022 1.99399 15.8177 2.19332 16.4156C2.23103 16.5234 2.36572 16.7928 2.5004 17.019C2.6297 17.2399 2.78593 17.5039 2.8398 17.5955C2.94216 17.7733 3.59403 18.6298 3.85262 18.9208C4.16509 19.2763 4.90854 19.9497 5.28565 20.2299C5.40418 20.3161 5.51192 20.3969 5.52808 20.4131C5.56041 20.4508 6.19073 20.8494 6.56784 21.0703C7.27358 21.4851 8.41031 21.8892 9.66556 22.1693C10.3336 22.3148 11.6104 22.3633 12.6124 22.2717C13.9754 22.1532 15.8125 21.5175 16.9223 20.7902C17.1001 20.6716 17.2833 20.5585 17.3264 20.537C17.3695 20.5154 17.5365 20.3969 17.6927 20.2676C17.8543 20.1383 17.9998 20.0359 18.0213 20.0359C18.059 20.0359 19.1904 18.9261 19.3197 18.7645C19.3628 18.7053 19.4975 18.5383 19.6214 18.3928C19.9446 17.9995 20.2894 17.477 20.5264 17.019C20.6396 16.7981 20.7527 16.588 20.7743 16.5611C20.8712 16.4372 21.2645 15.4082 21.4369 14.8372C21.9002 13.3072 21.9433 11.2169 21.5446 9.61144C21.41 9.05116 21.3884 8.97573 21.2376 8.56091C20.9951 7.87672 20.6503 7.17636 20.1655 6.37904C19.9392 6.00192 19.255 5.17227 18.8025 4.71435C18.393 4.29952 17.2833 3.38906 17.1917 3.38906C17.1701 3.38906 17.0785 3.33519 16.987 3.26515C16.1034 2.64022 14.3579 1.99913 12.9895 1.7998C12.0037 1.65973 10.5868 1.68128 9.6494 1.85367C8.56654 2.053 7.08502 2.60251 6.30925 3.09276C5.34491 3.70153 5.00551 3.96012 4.34287 4.60121C3.44857 5.4578 2.72667 6.45985 2.18255 7.59119C1.93473 8.10298 1.82159 8.21073 1.50913 8.20534C1.3098 8.20534 1.23437 8.17302 1.0943 8.03295C0.851874 7.78513 0.868036 7.53731 1.16434 6.94471C1.43371 6.40597 1.76233 5.84569 1.82159 5.82414C1.84314 5.81337 1.86469 5.78104 1.86469 5.74872C1.86469 5.72178 1.90779 5.64097 1.95628 5.57093C2.01015 5.50629 2.09096 5.39315 2.13406 5.3285C2.51656 4.74667 3.47012 3.7123 4.04118 3.25438C4.14893 3.16279 4.28361 3.05505 4.33209 3.01195C4.56914 2.80184 4.87622 2.58096 4.9247 2.58096C4.95164 2.58096 5.00551 2.54325 5.04322 2.50015C5.08093 2.45705 5.38263 2.26311 5.72203 2.06378C7.03115 1.30416 8.37799 0.830076 9.8595 0.614583C10.4521 0.528385 11.7289 0.474512 12.2623 0.512223Z" fill="#00816F"/>
<path id="Vector_2" d="M3.45395 9.18573C3.63173 9.22344 3.82029 9.27193 3.87416 9.2827C4.04117 9.3258 4.62839 9.68136 4.80078 9.8376C5.02166 10.0423 5.32874 10.4356 5.44188 10.6457L5.53346 10.8235H10.84C16.5775 10.8235 16.4051 10.8127 16.5991 11.109C16.6745 11.2275 16.6799 11.4753 16.6691 13.2208L16.6529 15.198L16.5021 15.3273C16.3243 15.4781 15.9633 15.5051 15.7748 15.3704C15.6724 15.3004 15.4893 15.0256 15.4946 14.9448C15.4946 14.9286 15.4946 14.2606 15.4946 13.4633V12.0087H14.3633H13.232V13V13.9912L13.0434 14.1582C12.7417 14.4222 12.3646 14.3737 12.1599 14.0397C12.0575 13.8673 12.0468 13.7811 12.0468 12.9299V12.0087L8.91132 12.0195L5.77589 12.0356L5.75973 12.2511C5.72202 12.8761 5.45804 13.4633 4.98934 13.9697C4.12736 14.8909 2.8344 15.1549 1.70845 14.6431C1.37982 14.4923 0.900349 14.1421 0.754891 13.9481C0.71718 13.905 0.63637 13.8081 0.571722 13.7326C0.280805 13.404 0.0383752 12.7468 0.00605113 12.2026C-0.0478223 11.373 0.259256 10.5649 0.846476 9.97767C1.14817 9.67598 1.28824 9.58439 1.9832 9.25576C2.10711 9.1965 2.71588 9.09953 2.94215 9.10492C3.04451 9.10492 3.27617 9.14263 3.45395 9.18573Z" fill="#00816F"/>
</g>
</svg>
